<svg width="30" height="40" viewBox="0 0 50 60" fill="none" xmlns="http://www.w3.org/2000/svg">
<path d="M9.3469 36.8676V2.37342C9.3469 1.55756 9.93469 0.896292 10.6599 0.896292H39.8434C45.4325 0.896292 50 6.03475 50 12.3226V48.3869C50 49.2035 49.4122 49.8648 48.687 49.8648H20.8998C20.2471 55.6509 15.8533 60 10.6599 60C4.95944 60 0.337894 54.8007 0.337894 48.3869C0.337894 42.545 4.20435 37.6019 9.3469 36.8676ZM5.58604 50.7687C4.36465 49.3946 6.22218 47.3056 7.44357 48.6797L9.23048 50.6899L13.7076 42.9522C14.644 41.3298 16.84 42.9343 15.9036 44.5567L10.5995 53.7222C10.1853 54.5846 9.14079 54.7678 8.51546 54.0643L5.58604 50.7687ZM20.8998 46.9098H47.3734V12.3226C47.3734 7.66646 43.9821 3.85126 39.8434 3.85126H11.9735V36.8676C16.6237 37.5318 20.3095 41.6776 20.8998 46.9098ZM10.6599 39.7296C6.40984 39.7296 2.96451 43.6056 2.96451 48.3869C2.96451 53.169 6.40984 57.045 10.6599 57.045C14.9106 57.045 18.3559 53.169 18.3559 48.3869C18.3559 43.6056 14.9106 39.7296 10.6599 39.7296ZM37.9083 21.5396H43.7671C44.4923 21.5396 45.0801 22.2016 45.0801 23.0174V38.5623C45.0801 39.3782 44.4923 40.0402 43.7671 40.0402H37.9083C37.1831 40.0402 36.5946 39.3782 36.5946 38.5623V23.0174C36.5946 22.2016 37.1831 21.5396 37.9083 21.5396ZM42.4535 24.4946H39.2213V37.0845H42.4535V24.4946ZM31.6079 12.8049C29.8802 12.8049 29.8802 9.84995 31.6079 9.84995H41.5565C43.2843 9.84995 43.2843 12.8049 41.5565 12.8049H31.6079ZM31.6079 17.7795C29.8802 17.7795 29.8802 14.8245 31.6079 14.8245H41.5565C43.2843 14.8245 43.2843 17.7795 41.5565 17.7795H31.6079ZM15.3584 33.4489C13.6307 33.4489 13.6307 30.494 15.3584 30.494H33.4871C35.2142 30.494 35.2142 33.4489 33.4871 33.4489H15.3584ZM15.3584 29.2208C13.6307 29.2208 13.6307 26.2658 15.3584 26.2658H33.4871C35.2142 26.2658 35.2142 29.2208 33.4871 29.2208H15.3584ZM15.3584 24.9927C13.6307 24.9927 13.6307 22.037 15.3584 22.037H28.4018C30.1296 22.037 30.1296 24.9927 28.4018 24.9927H15.3584ZM15.6345 6.86563H25.3623C26.0875 6.86563 26.6753 7.52691 26.6753 8.34276V19.2867C26.6753 20.1025 26.0875 20.7645 25.3623 20.7645H15.6345C14.9093 20.7645 14.3215 20.1025 14.3215 19.2867V8.34276C14.3215 7.52691 14.9093 6.86563 15.6345 6.86563ZM24.0487 9.8206H16.9481V17.8095H24.0487V9.8206Z" fill="#050960"/>
</svg>
