<svg width="1243" height="511" viewBox="0 0 1243 511" fill="none" xmlns="http://www.w3.org/2000/svg">
<rect width="385" height="511" rx="41" fill="#CEE8FA"/>
<rect x="429" width="385" height="511" rx="41" fill="#CEE8FA"/>
<rect x="858" width="385" height="511" rx="41" fill="#CEE8FA"/>
<path d="M96.9226 407.54C94.2946 407.54 91.8826 407.072 89.6866 406.136C87.4906 405.2 85.5826 403.868 83.9626 402.14C82.3426 400.376 81.0826 398.306 80.1826 395.93C79.3186 393.554 78.8866 390.944 78.8866 388.1C78.8866 385.4 79.3546 382.898 80.2906 380.594C81.2626 378.254 82.5946 376.202 84.2866 374.438C85.9786 372.674 87.9406 371.306 90.1726 370.334C92.4046 369.362 94.8166 368.876 97.4086 368.876C99.2446 368.876 101.027 369.164 102.755 369.74C104.519 370.28 106.103 371.054 107.507 372.062C108.947 373.034 110.117 374.15 111.017 375.41L107.129 379.46C106.085 378.416 105.023 377.552 103.943 376.868C102.899 376.148 101.819 375.608 100.703 375.248C99.6226 374.888 98.5246 374.708 97.4086 374.708C95.6446 374.708 93.9886 375.05 92.4406 375.734C90.9286 376.382 89.5966 377.3 88.4446 378.488C87.3286 379.676 86.4466 381.098 85.7986 382.754C85.1506 384.374 84.8266 386.156 84.8266 388.1C84.8266 390.152 85.1326 392.024 85.7446 393.716C86.3926 395.372 87.2926 396.794 88.4446 397.982C89.5966 399.17 90.9646 400.088 92.5486 400.736C94.1686 401.348 95.9506 401.654 97.8946 401.654C99.0826 401.654 100.253 401.492 101.405 401.168C102.557 400.844 103.637 400.376 104.645 399.764C105.653 399.152 106.571 398.432 107.399 397.604L110.315 402.356C109.487 403.328 108.353 404.21 106.913 405.002C105.509 405.794 103.925 406.424 102.161 406.892C100.433 407.324 98.6866 407.54 96.9226 407.54ZM128.713 407V378.65H134.329V387.56L133.789 385.4C134.185 384.032 134.851 382.79 135.787 381.674C136.759 380.558 137.857 379.676 139.081 379.028C140.341 378.38 141.637 378.056 142.969 378.056C143.581 378.056 144.157 378.11 144.697 378.218C145.273 378.326 145.723 378.452 146.047 378.596L144.589 384.644C144.157 384.464 143.671 384.32 143.131 384.212C142.627 384.068 142.123 383.996 141.619 383.996C140.647 383.996 139.711 384.194 138.811 384.59C137.947 384.95 137.173 385.472 136.489 386.156C135.841 386.804 135.319 387.578 134.923 388.478C134.527 389.342 134.329 390.296 134.329 391.34V407H128.713ZM174.389 407.54C171.473 407.54 168.881 406.928 166.613 405.704C164.381 404.444 162.617 402.734 161.321 400.574C160.061 398.414 159.431 395.93 159.431 393.122C159.431 390.89 159.791 388.856 160.511 387.02C161.231 385.184 162.221 383.6 163.481 382.268C164.777 380.9 166.307 379.856 168.071 379.136C169.871 378.38 171.815 378.002 173.903 378.002C175.739 378.002 177.449 378.362 179.033 379.082C180.617 379.766 181.985 380.72 183.137 381.944C184.325 383.168 185.225 384.626 185.837 386.318C186.485 387.974 186.791 389.792 186.755 391.772L186.701 394.148H163.535L162.293 389.72H181.895L181.085 390.638V389.342C180.977 388.154 180.581 387.092 179.897 386.156C179.213 385.22 178.349 384.482 177.305 383.942C176.261 383.402 175.127 383.132 173.903 383.132C171.959 383.132 170.321 383.51 168.989 384.266C167.657 384.986 166.649 386.066 165.965 387.506C165.281 388.91 164.939 390.656 164.939 392.744C164.939 394.724 165.353 396.452 166.181 397.928C167.009 399.368 168.179 400.484 169.691 401.276C171.203 402.068 172.949 402.464 174.929 402.464C176.333 402.464 177.629 402.23 178.817 401.762C180.041 401.294 181.355 400.448 182.759 399.224L185.567 403.166C184.703 404.03 183.641 404.786 182.381 405.434C181.157 406.082 179.843 406.604 178.439 407C177.071 407.36 175.721 407.54 174.389 407.54ZM215.588 407.54C213.248 407.54 211.106 406.892 209.162 405.596C207.254 404.3 205.724 402.536 204.572 400.304C203.42 398.072 202.844 395.552 202.844 392.744C202.844 389.9 203.42 387.38 204.572 385.184C205.76 382.952 207.344 381.206 209.324 379.946C211.34 378.686 213.59 378.056 216.074 378.056C217.55 378.056 218.9 378.272 220.124 378.704C221.348 379.136 222.41 379.748 223.31 380.54C224.246 381.296 225.002 382.178 225.578 383.186C226.19 384.194 226.568 385.274 226.712 386.426L225.47 385.994V378.65H231.086V407H225.47V400.25L226.766 399.872C226.55 400.844 226.1 401.798 225.416 402.734C224.768 403.634 223.922 404.444 222.878 405.164C221.87 405.884 220.736 406.46 219.476 406.892C218.252 407.324 216.956 407.54 215.588 407.54ZM217.046 402.41C218.738 402.41 220.232 401.996 221.528 401.168C222.824 400.34 223.832 399.206 224.552 397.766C225.308 396.29 225.686 394.616 225.686 392.744C225.686 390.908 225.308 389.27 224.552 387.83C223.832 386.39 222.824 385.256 221.528 384.428C220.232 383.6 218.738 383.186 217.046 383.186C215.39 383.186 213.914 383.6 212.618 384.428C211.358 385.256 210.35 386.39 209.594 387.83C208.874 389.27 208.514 390.908 208.514 392.744C208.514 394.616 208.874 396.29 209.594 397.766C210.35 399.206 211.358 400.34 212.618 401.168C213.914 401.996 215.39 402.41 217.046 402.41ZM254.242 407V371.414H259.804V407H254.242ZM248.356 384.05V378.65H266.392V384.05H248.356ZM296.303 407.54C293.387 407.54 290.795 406.928 288.527 405.704C286.295 404.444 284.531 402.734 283.235 400.574C281.975 398.414 281.345 395.93 281.345 393.122C281.345 390.89 281.705 388.856 282.425 387.02C283.145 385.184 284.135 383.6 285.395 382.268C286.691 380.9 288.221 379.856 289.985 379.136C291.785 378.38 293.729 378.002 295.817 378.002C297.653 378.002 299.363 378.362 300.947 379.082C302.531 379.766 303.899 380.72 305.051 381.944C306.239 383.168 307.139 384.626 307.751 386.318C308.399 387.974 308.705 389.792 308.669 391.772L308.615 394.148H285.449L284.207 389.72H303.809L302.999 390.638V389.342C302.891 388.154 302.495 387.092 301.811 386.156C301.127 385.22 300.263 384.482 299.219 383.942C298.175 383.402 297.041 383.132 295.817 383.132C293.873 383.132 292.235 383.51 290.903 384.266C289.571 384.986 288.563 386.066 287.879 387.506C287.195 388.91 286.853 390.656 286.853 392.744C286.853 394.724 287.267 396.452 288.095 397.928C288.923 399.368 290.093 400.484 291.605 401.276C293.117 402.068 294.863 402.464 296.843 402.464C298.247 402.464 299.543 402.23 300.731 401.762C301.955 401.294 303.269 400.448 304.673 399.224L307.481 403.166C306.617 404.03 305.555 404.786 304.295 405.434C303.071 406.082 301.757 406.604 300.353 407C298.985 407.36 297.635 407.54 296.303 407.54ZM73.7734 475V437.2H89.8654C92.0254 437.2 94.0054 437.74 95.8054 438.82C97.6414 439.864 99.0994 441.304 100.179 443.14C101.259 444.94 101.799 446.974 101.799 449.242C101.799 451.294 101.259 453.202 100.179 454.966C99.0994 456.73 97.6594 458.152 95.8594 459.232C94.0594 460.276 92.0614 460.798 89.8654 460.798H79.6054V475H73.7734ZM96.2374 475L86.6254 457.936L92.6194 456.586L103.311 475.054L96.2374 475ZM79.6054 455.182H90.4054C91.4494 455.182 92.3854 454.93 93.2134 454.426C94.0414 453.886 94.6894 453.166 95.1574 452.266C95.6254 451.33 95.8594 450.304 95.8594 449.188C95.8594 447.928 95.5534 446.83 94.9414 445.894C94.3654 444.922 93.5374 444.166 92.4574 443.626C91.4134 443.086 90.2254 442.816 88.8934 442.816H79.6054V455.182ZM132.892 475.54C129.976 475.54 127.384 474.928 125.116 473.704C122.884 472.444 121.12 470.734 119.824 468.574C118.564 466.414 117.934 463.93 117.934 461.122C117.934 458.89 118.294 456.856 119.014 455.02C119.734 453.184 120.724 451.6 121.984 450.268C123.28 448.9 124.81 447.856 126.574 447.136C128.374 446.38 130.318 446.002 132.406 446.002C134.242 446.002 135.952 446.362 137.536 447.082C139.12 447.766 140.488 448.72 141.64 449.944C142.828 451.168 143.728 452.626 144.34 454.318C144.988 455.974 145.294 457.792 145.258 459.772L145.204 462.148H122.038L120.796 457.72H140.398L139.588 458.638V457.342C139.48 456.154 139.084 455.092 138.4 454.156C137.716 453.22 136.852 452.482 135.808 451.942C134.764 451.402 133.63 451.132 132.406 451.132C130.462 451.132 128.824 451.51 127.492 452.266C126.16 452.986 125.152 454.066 124.468 455.506C123.784 456.91 123.442 458.656 123.442 460.744C123.442 462.724 123.856 464.452 124.684 465.928C125.512 467.368 126.682 468.484 128.194 469.276C129.706 470.068 131.452 470.464 133.432 470.464C134.836 470.464 136.132 470.23 137.32 469.762C138.544 469.294 139.858 468.448 141.262 467.224L144.07 471.166C143.206 472.03 142.144 472.786 140.884 473.434C139.66 474.082 138.346 474.604 136.942 475C135.574 475.36 134.224 475.54 132.892 475.54ZM171.552 475.54C169.176 475.54 167.034 475.126 165.126 474.298C163.218 473.47 161.634 472.246 160.374 470.626L164.154 467.386C165.234 468.646 166.404 469.564 167.664 470.14C168.96 470.68 170.418 470.95 172.038 470.95C172.686 470.95 173.28 470.878 173.82 470.734C174.396 470.554 174.882 470.302 175.278 469.978C175.71 469.654 176.034 469.276 176.25 468.844C176.466 468.376 176.574 467.872 176.574 467.332C176.574 466.396 176.232 465.64 175.548 465.064C175.188 464.812 174.612 464.542 173.82 464.254C173.064 463.93 172.074 463.606 170.85 463.282C168.762 462.742 167.052 462.13 165.72 461.446C164.388 460.762 163.362 459.988 162.642 459.124C162.102 458.44 161.706 457.702 161.454 456.91C161.202 456.082 161.076 455.182 161.076 454.21C161.076 453.022 161.328 451.942 161.832 450.97C162.372 449.962 163.092 449.098 163.992 448.378C164.928 447.622 166.008 447.046 167.232 446.65C168.492 446.254 169.824 446.056 171.228 446.056C172.56 446.056 173.874 446.236 175.17 446.596C176.502 446.956 177.726 447.478 178.842 448.162C179.958 448.846 180.894 449.656 181.65 450.592L178.464 454.102C177.78 453.418 177.024 452.824 176.196 452.32C175.404 451.78 174.594 451.366 173.766 451.078C172.938 450.79 172.182 450.646 171.498 450.646C170.742 450.646 170.058 450.718 169.446 450.862C168.834 451.006 168.312 451.222 167.88 451.51C167.484 451.798 167.178 452.158 166.962 452.59C166.746 453.022 166.638 453.508 166.638 454.048C166.674 454.516 166.782 454.966 166.962 455.398C167.178 455.794 167.466 456.136 167.826 456.424C168.222 456.712 168.816 457.018 169.608 457.342C170.4 457.666 171.408 457.972 172.632 458.26C174.432 458.728 175.908 459.25 177.06 459.826C178.248 460.366 179.184 460.996 179.868 461.716C180.588 462.4 181.092 463.192 181.38 464.092C181.668 464.992 181.812 466 181.812 467.116C181.812 468.736 181.344 470.194 180.408 471.49C179.508 472.75 178.284 473.74 176.736 474.46C175.188 475.18 173.46 475.54 171.552 475.54ZM208.678 475.54C206.662 475.54 204.898 475.072 203.386 474.136C201.91 473.2 200.758 471.886 199.93 470.194C199.138 468.502 198.742 466.486 198.742 464.146V446.65H204.304V462.634C204.304 464.29 204.556 465.73 205.06 466.954C205.6 468.142 206.356 469.06 207.328 469.708C208.336 470.356 209.542 470.68 210.946 470.68C211.99 470.68 212.944 470.518 213.808 470.194C214.672 469.834 215.41 469.348 216.022 468.736C216.67 468.124 217.174 467.386 217.534 466.522C217.894 465.658 218.074 464.722 218.074 463.714V446.65H223.636V475H218.074V469.06L219.046 468.412C218.614 469.744 217.876 470.95 216.832 472.03C215.824 473.11 214.618 473.974 213.214 474.622C211.81 475.234 210.298 475.54 208.678 475.54ZM242.129 475V446.65H247.745V452.698L246.719 453.346C247.007 452.41 247.457 451.51 248.069 450.646C248.717 449.782 249.491 449.026 250.391 448.378C251.327 447.694 252.317 447.154 253.361 446.758C254.441 446.362 255.539 446.164 256.655 446.164C258.275 446.164 259.697 446.434 260.921 446.974C262.145 447.514 263.153 448.324 263.945 449.404C264.737 450.484 265.313 451.834 265.673 453.454L264.809 453.238L265.187 452.32C265.583 451.492 266.123 450.718 266.807 449.998C267.527 449.242 268.337 448.576 269.237 448C270.137 447.424 271.091 446.974 272.099 446.65C273.107 446.326 274.097 446.164 275.069 446.164C277.193 446.164 278.939 446.596 280.307 447.46C281.711 448.324 282.755 449.638 283.439 451.402C284.159 453.166 284.519 455.362 284.519 457.99V475H278.903V458.314C278.903 456.694 278.687 455.38 278.255 454.372C277.859 453.328 277.247 452.554 276.419 452.05C275.591 451.546 274.529 451.294 273.233 451.294C272.225 451.294 271.271 451.474 270.371 451.834C269.507 452.158 268.751 452.626 268.103 453.238C267.455 453.85 266.951 454.57 266.591 455.398C266.231 456.19 266.051 457.072 266.051 458.044V475H260.435V458.206C260.435 456.73 260.219 455.488 259.787 454.48C259.355 453.436 258.725 452.644 257.897 452.104C257.069 451.564 256.061 451.294 254.873 451.294C253.865 451.294 252.929 451.474 252.065 451.834C251.201 452.158 250.445 452.626 249.797 453.238C249.149 453.814 248.645 454.516 248.285 455.344C247.925 456.136 247.745 457 247.745 457.936V475H242.129ZM315.996 475.54C313.08 475.54 310.488 474.928 308.22 473.704C305.988 472.444 304.224 470.734 302.928 468.574C301.668 466.414 301.038 463.93 301.038 461.122C301.038 458.89 301.398 456.856 302.118 455.02C302.838 453.184 303.828 451.6 305.088 450.268C306.384 448.9 307.914 447.856 309.678 447.136C311.478 446.38 313.422 446.002 315.51 446.002C317.346 446.002 319.056 446.362 320.64 447.082C322.224 447.766 323.592 448.72 324.744 449.944C325.932 451.168 326.832 452.626 327.444 454.318C328.092 455.974 328.398 457.792 328.362 459.772L328.308 462.148H305.142L303.9 457.72H323.502L322.692 458.638V457.342C322.584 456.154 322.188 455.092 321.504 454.156C320.82 453.22 319.956 452.482 318.912 451.942C317.868 451.402 316.734 451.132 315.51 451.132C313.566 451.132 311.928 451.51 310.596 452.266C309.264 452.986 308.256 454.066 307.572 455.506C306.888 456.91 306.546 458.656 306.546 460.744C306.546 462.724 306.96 464.452 307.788 465.928C308.616 467.368 309.786 468.484 311.298 469.276C312.81 470.068 314.556 470.464 316.536 470.464C317.94 470.464 319.236 470.23 320.424 469.762C321.648 469.294 322.962 468.448 324.366 467.224L327.174 471.166C326.31 472.03 325.248 472.786 323.988 473.434C322.764 474.082 321.45 474.604 320.046 475C318.678 475.36 317.328 475.54 315.996 475.54Z" fill="black"/>
<path d="M517.438 405.324C514.522 405.324 511.912 404.694 509.608 403.434C507.304 402.138 505.486 400.374 504.154 398.142C502.858 395.874 502.21 393.318 502.21 390.474V367.146H508.042V389.988C508.042 391.824 508.474 393.48 509.338 394.956C510.202 396.396 511.336 397.548 512.74 398.412C514.18 399.276 515.746 399.708 517.438 399.708C519.238 399.708 520.858 399.276 522.298 398.412C523.774 397.548 524.944 396.396 525.808 394.956C526.672 393.48 527.104 391.824 527.104 389.988V367.146H532.666V390.474C532.666 393.318 532 395.874 530.668 398.142C529.372 400.374 527.572 402.138 525.268 403.434C522.964 404.694 520.354 405.324 517.438 405.324ZM553.199 416.88V376.65H558.815V383.13L557.951 382.644C558.167 381.564 558.779 380.538 559.787 379.566C560.795 378.558 562.019 377.748 563.459 377.136C564.935 376.488 566.447 376.164 567.995 376.164C570.551 376.164 572.819 376.794 574.799 378.054C576.779 379.314 578.345 381.042 579.497 383.238C580.649 385.434 581.225 387.954 581.225 390.798C581.225 393.606 580.649 396.126 579.497 398.358C578.381 400.554 576.833 402.3 574.853 403.596C572.873 404.856 570.641 405.486 568.157 405.486C566.501 405.486 564.899 405.162 563.351 404.514C561.803 403.83 560.489 402.966 559.409 401.922C558.329 400.878 557.663 399.798 557.411 398.682L558.815 397.926V416.88H553.199ZM567.239 400.356C568.895 400.356 570.371 399.942 571.667 399.114C572.963 398.286 573.989 397.152 574.745 395.712C575.501 394.272 575.879 392.634 575.879 390.798C575.879 388.962 575.501 387.342 574.745 385.938C574.025 384.498 573.017 383.364 571.721 382.536C570.425 381.708 568.931 381.294 567.239 381.294C565.547 381.294 564.053 381.708 562.757 382.536C561.461 383.328 560.435 384.444 559.679 385.884C558.923 387.324 558.545 388.962 558.545 390.798C558.545 392.634 558.923 394.272 559.679 395.712C560.435 397.152 561.461 398.286 562.757 399.114C564.053 399.942 565.547 400.356 567.239 400.356ZM599.253 405V365.04H604.815V405H599.253ZM636.795 405.54C634.023 405.54 631.539 404.91 629.343 403.65C627.183 402.354 625.473 400.608 624.213 398.412C622.953 396.18 622.323 393.642 622.323 390.798C622.323 387.954 622.953 385.434 624.213 383.238C625.473 381.006 627.183 379.26 629.343 378C631.539 376.704 634.023 376.056 636.795 376.056C639.531 376.056 641.979 376.704 644.139 378C646.335 379.26 648.063 381.006 649.323 383.238C650.583 385.434 651.213 387.954 651.213 390.798C651.213 393.642 650.583 396.18 649.323 398.412C648.063 400.608 646.335 402.354 644.139 403.65C641.979 404.91 639.531 405.54 636.795 405.54ZM636.795 400.464C638.487 400.464 639.999 400.05 641.331 399.222C642.663 398.358 643.707 397.206 644.463 395.766C645.219 394.29 645.579 392.634 645.543 390.798C645.579 388.926 645.219 387.27 644.463 385.83C643.707 384.354 642.663 383.202 641.331 382.374C639.999 381.546 638.487 381.132 636.795 381.132C635.103 381.132 633.573 381.564 632.205 382.428C630.873 383.256 629.829 384.408 629.073 385.884C628.317 387.324 627.957 388.962 627.993 390.798C627.957 392.634 628.317 394.29 629.073 395.766C629.829 397.206 630.873 398.358 632.205 399.222C633.573 400.05 635.103 400.464 636.795 400.464ZM680.061 405.54C677.721 405.54 675.579 404.892 673.635 403.596C671.727 402.3 670.197 400.536 669.045 398.304C667.893 396.072 667.317 393.552 667.317 390.744C667.317 387.9 667.893 385.38 669.045 383.184C670.233 380.952 671.817 379.206 673.797 377.946C675.813 376.686 678.063 376.056 680.547 376.056C682.023 376.056 683.373 376.272 684.597 376.704C685.821 377.136 686.883 377.748 687.783 378.54C688.719 379.296 689.475 380.178 690.051 381.186C690.663 382.194 691.041 383.274 691.185 384.426L689.943 383.994V376.65H695.559V405H689.943V398.25L691.239 397.872C691.023 398.844 690.573 399.798 689.889 400.734C689.241 401.634 688.395 402.444 687.351 403.164C686.343 403.884 685.209 404.46 683.949 404.892C682.725 405.324 681.429 405.54 680.061 405.54ZM681.519 400.41C683.211 400.41 684.705 399.996 686.001 399.168C687.297 398.34 688.305 397.206 689.025 395.766C689.781 394.29 690.159 392.616 690.159 390.744C690.159 388.908 689.781 387.27 689.025 385.83C688.305 384.39 687.297 383.256 686.001 382.428C684.705 381.6 683.211 381.186 681.519 381.186C679.863 381.186 678.387 381.6 677.091 382.428C675.831 383.256 674.823 384.39 674.067 385.83C673.347 387.27 672.987 388.908 672.987 390.744C672.987 392.616 673.347 394.29 674.067 395.766C674.823 397.206 675.831 398.34 677.091 399.168C678.387 399.996 679.863 400.41 681.519 400.41ZM727.031 405.54C724.439 405.54 722.117 404.91 720.065 403.65C718.049 402.354 716.447 400.608 715.259 398.412C714.071 396.18 713.477 393.642 713.477 390.798C713.477 387.954 714.053 385.434 715.205 383.238C716.393 381.006 717.995 379.26 720.011 378C722.027 376.704 724.313 376.056 726.869 376.056C728.273 376.056 729.623 376.29 730.919 376.758C732.251 377.19 733.439 377.802 734.483 378.594C735.527 379.35 736.337 380.196 736.913 381.132C737.525 382.032 737.831 382.95 737.831 383.886L736.211 383.994V365.04H741.773V405H736.211V398.25H737.291C737.291 399.114 737.003 399.978 736.427 400.842C735.851 401.67 735.077 402.444 734.105 403.164C733.169 403.884 732.071 404.46 730.811 404.892C729.587 405.324 728.327 405.54 727.031 405.54ZM727.787 400.734C729.479 400.734 730.973 400.302 732.269 399.438C733.565 398.574 734.573 397.404 735.293 395.928C736.049 394.416 736.427 392.706 736.427 390.798C736.427 388.89 736.049 387.198 735.293 385.722C734.573 384.21 733.565 383.022 732.269 382.158C730.973 381.294 729.479 380.862 727.787 380.862C726.095 380.862 724.601 381.294 723.305 382.158C722.009 383.022 720.983 384.21 720.227 385.722C719.507 387.198 719.147 388.89 719.147 390.798C719.147 392.706 719.507 394.416 720.227 395.928C720.983 397.404 722.009 398.574 723.305 399.438C724.601 400.302 726.095 400.734 727.787 400.734ZM562.882 473V435.2H568.714V473H562.882ZM565.474 456.908V451.292H584.968V456.908H565.474ZM565.474 440.816V435.2H587.398V440.816H565.474ZM606.761 473V444.65H612.323V473H606.761ZM609.461 438.386C608.273 438.386 607.355 438.08 606.707 437.468C606.059 436.856 605.735 435.992 605.735 434.876C605.735 433.832 606.059 432.986 606.707 432.338C607.391 431.69 608.309 431.366 609.461 431.366C610.649 431.366 611.567 431.672 612.215 432.284C612.863 432.896 613.187 433.76 613.187 434.876C613.187 435.92 612.845 436.766 612.161 437.414C611.513 438.062 610.613 438.386 609.461 438.386ZM632.86 473V433.04H638.422V473H632.86ZM670.887 473.54C667.971 473.54 665.379 472.928 663.111 471.704C660.879 470.444 659.115 468.734 657.819 466.574C656.559 464.414 655.929 461.93 655.929 459.122C655.929 456.89 656.289 454.856 657.009 453.02C657.729 451.184 658.719 449.6 659.979 448.268C661.275 446.9 662.805 445.856 664.569 445.136C666.369 444.38 668.313 444.002 670.401 444.002C672.237 444.002 673.947 444.362 675.531 445.082C677.115 445.766 678.483 446.72 679.635 447.944C680.823 449.168 681.723 450.626 682.335 452.318C682.983 453.974 683.289 455.792 683.253 457.772L683.199 460.148H660.033L658.791 455.72H678.393L677.583 456.638V455.342C677.475 454.154 677.079 453.092 676.395 452.156C675.711 451.22 674.847 450.482 673.803 449.942C672.759 449.402 671.625 449.132 670.401 449.132C668.457 449.132 666.819 449.51 665.487 450.266C664.155 450.986 663.147 452.066 662.463 453.506C661.779 454.91 661.437 456.656 661.437 458.744C661.437 460.724 661.851 462.452 662.679 463.928C663.507 465.368 664.677 466.484 666.189 467.276C667.701 468.068 669.447 468.464 671.427 468.464C672.831 468.464 674.127 468.23 675.315 467.762C676.539 467.294 677.853 466.448 679.257 465.224L682.065 469.166C681.201 470.03 680.139 470.786 678.879 471.434C677.655 472.082 676.341 472.604 674.937 473C673.569 473.36 672.219 473.54 670.887 473.54Z" fill="black"/>
<path d="M1014.45 407.54C1011.72 407.54 1009.16 407.054 1006.78 406.082C1004.41 405.074 1002.32 403.688 1000.52 401.924C998.72 400.16 997.316 398.108 996.308 395.768C995.336 393.392 994.85 390.836 994.85 388.1C994.85 385.4 995.336 382.88 996.308 380.54C997.316 378.2 998.702 376.166 1000.47 374.438C1002.27 372.674 1004.35 371.306 1006.73 370.334C1009.11 369.362 1011.66 368.876 1014.4 368.876C1016.31 368.876 1018.16 369.146 1019.96 369.686C1021.8 370.226 1023.45 370.982 1024.93 371.954C1026.4 372.926 1027.61 374.042 1028.55 375.302L1024.77 379.244C1023.69 378.2 1022.57 377.336 1021.42 376.652C1020.3 375.968 1019.15 375.446 1017.96 375.086C1016.77 374.726 1015.59 374.546 1014.4 374.546C1012.45 374.546 1010.65 374.888 1009 375.572C1007.38 376.256 1005.94 377.21 1004.68 378.434C1003.45 379.658 1002.5 381.098 1001.82 382.754C1001.13 384.374 1000.79 386.156 1000.79 388.1C1000.79 389.972 1001.15 391.754 1001.87 393.446C1002.59 395.102 1003.58 396.56 1004.84 397.82C1006.14 399.08 1007.61 400.07 1009.27 400.79C1010.96 401.51 1012.74 401.87 1014.61 401.87C1016.02 401.87 1017.35 401.672 1018.61 401.276C1019.87 400.844 1020.99 400.25 1021.96 399.494C1022.93 398.738 1023.69 397.874 1024.23 396.902C1024.77 395.894 1025.04 394.832 1025.04 393.716V392.636L1025.85 393.392H1014.29V387.614H1031.03C1031.1 388.01 1031.16 388.406 1031.19 388.802C1031.23 389.162 1031.25 389.522 1031.25 389.882C1031.28 390.206 1031.3 390.53 1031.3 390.854C1031.3 393.338 1030.87 395.606 1030 397.658C1029.14 399.674 1027.93 401.42 1026.39 402.896C1024.87 404.372 1023.09 405.524 1021.04 406.352C1019.02 407.144 1016.83 407.54 1014.45 407.54ZM1062.6 407.54C1059.68 407.54 1057.09 406.928 1054.82 405.704C1052.59 404.444 1050.83 402.734 1049.53 400.574C1048.27 398.414 1047.64 395.93 1047.64 393.122C1047.64 390.89 1048 388.856 1048.72 387.02C1049.44 385.184 1050.43 383.6 1051.69 382.268C1052.99 380.9 1054.52 379.856 1056.28 379.136C1058.08 378.38 1060.03 378.002 1062.11 378.002C1063.95 378.002 1065.66 378.362 1067.24 379.082C1068.83 379.766 1070.2 380.72 1071.35 381.944C1072.54 383.168 1073.44 384.626 1074.05 386.318C1074.7 387.974 1075 389.792 1074.97 391.772L1074.91 394.148H1051.75L1050.5 389.72H1070.11L1069.3 390.638V389.342C1069.19 388.154 1068.79 387.092 1068.11 386.156C1067.42 385.22 1066.56 384.482 1065.52 383.942C1064.47 383.402 1063.34 383.132 1062.11 383.132C1060.17 383.132 1058.53 383.51 1057.2 384.266C1055.87 384.986 1054.86 386.066 1054.18 387.506C1053.49 388.91 1053.15 390.656 1053.15 392.744C1053.15 394.724 1053.56 396.452 1054.39 397.928C1055.22 399.368 1056.39 400.484 1057.9 401.276C1059.41 402.068 1061.16 402.464 1063.14 402.464C1064.54 402.464 1065.84 402.23 1067.03 401.762C1068.25 401.294 1069.57 400.448 1070.97 399.224L1073.78 403.166C1072.91 404.03 1071.85 404.786 1070.59 405.434C1069.37 406.082 1068.05 406.604 1066.65 407C1065.28 407.36 1063.93 407.54 1062.6 407.54ZM1096.4 407V371.414H1101.96V407H1096.4ZM1090.51 384.05V378.65H1108.55V384.05H1090.51ZM983.683 475.54C981.631 475.54 979.723 475.27 977.959 474.73C976.231 474.19 974.647 473.38 973.207 472.3C971.803 471.184 970.543 469.816 969.427 468.196L973.423 463.606C975.187 466.126 976.879 467.872 978.499 468.844C980.119 469.816 982.045 470.302 984.277 470.302C985.645 470.302 986.887 470.086 988.003 469.654C989.119 469.222 990.001 468.628 990.649 467.872C991.297 467.116 991.621 466.252 991.621 465.28C991.621 464.632 991.513 464.02 991.297 463.444C991.081 462.868 990.739 462.346 990.271 461.878C989.839 461.41 989.263 460.978 988.543 460.582C987.859 460.186 987.049 459.844 986.113 459.556C985.177 459.232 984.097 458.962 982.873 458.746C980.929 458.35 979.237 457.828 977.797 457.18C976.357 456.532 975.151 455.722 974.179 454.75C973.207 453.778 972.487 452.68 972.019 451.456C971.551 450.196 971.317 448.792 971.317 447.244C971.317 445.732 971.641 444.328 972.289 443.032C972.973 441.736 973.891 440.62 975.043 439.684C976.231 438.712 977.617 437.974 979.201 437.47C980.785 436.93 982.495 436.66 984.331 436.66C986.275 436.66 988.057 436.912 989.677 437.416C991.297 437.92 992.737 438.676 993.997 439.684C995.257 440.656 996.301 441.862 997.129 443.302L993.025 447.352C992.305 446.164 991.495 445.174 990.595 444.382C989.695 443.554 988.705 442.942 987.625 442.546C986.545 442.114 985.393 441.898 984.169 441.898C982.765 441.898 981.541 442.114 980.497 442.546C979.453 442.978 978.625 443.59 978.013 444.382C977.437 445.138 977.149 446.038 977.149 447.082C977.149 447.838 977.293 448.54 977.581 449.188C977.869 449.8 978.301 450.358 978.877 450.862C979.489 451.33 980.299 451.762 981.307 452.158C982.315 452.518 983.521 452.842 984.925 453.13C986.905 453.562 988.669 454.12 990.217 454.804C991.765 455.452 993.079 456.226 994.159 457.126C995.239 458.026 996.049 459.034 996.589 460.15C997.165 461.266 997.453 462.472 997.453 463.768C997.453 466.18 996.895 468.268 995.779 470.032C994.663 471.796 993.079 473.164 991.027 474.136C988.975 475.072 986.527 475.54 983.683 475.54ZM1028.23 475.54C1025.61 475.54 1023.25 474.892 1021.16 473.596C1019.11 472.3 1017.47 470.536 1016.25 468.304C1015.06 466.072 1014.46 463.57 1014.46 460.798C1014.46 458.026 1015.06 455.524 1016.25 453.292C1017.47 451.06 1019.11 449.296 1021.16 448C1023.25 446.704 1025.61 446.056 1028.23 446.056C1030.75 446.056 1033.04 446.578 1035.09 447.622C1037.18 448.63 1038.76 450.016 1039.84 451.78L1036.77 455.56C1036.19 454.732 1035.45 453.976 1034.55 453.292C1033.65 452.608 1032.7 452.068 1031.69 451.672C1030.68 451.276 1029.71 451.078 1028.77 451.078C1027.05 451.078 1025.5 451.51 1024.13 452.374C1022.8 453.202 1021.74 454.354 1020.94 455.83C1020.15 457.306 1019.76 458.962 1019.76 460.798C1019.76 462.634 1020.17 464.29 1021 465.766C1021.83 467.206 1022.92 468.358 1024.29 469.222C1025.66 470.086 1027.17 470.518 1028.83 470.518C1029.8 470.518 1030.74 470.356 1031.64 470.032C1032.57 469.708 1033.47 469.222 1034.34 468.574C1035.2 467.926 1036.01 467.134 1036.77 466.198L1039.84 469.978C1038.69 471.598 1037.04 472.93 1034.88 473.974C1032.75 475.018 1030.54 475.54 1028.23 475.54ZM1069.72 475.54C1066.94 475.54 1064.46 474.91 1062.26 473.65C1060.1 472.354 1058.39 470.608 1057.13 468.412C1055.87 466.18 1055.24 463.642 1055.24 460.798C1055.24 457.954 1055.87 455.434 1057.13 453.238C1058.39 451.006 1060.1 449.26 1062.26 448C1064.46 446.704 1066.94 446.056 1069.72 446.056C1072.45 446.056 1074.9 446.704 1077.06 448C1079.26 449.26 1080.98 451.006 1082.24 453.238C1083.5 455.434 1084.13 457.954 1084.13 460.798C1084.13 463.642 1083.5 466.18 1082.24 468.412C1080.98 470.608 1079.26 472.354 1077.06 473.65C1074.9 474.91 1072.45 475.54 1069.72 475.54ZM1069.72 470.464C1071.41 470.464 1072.92 470.05 1074.25 469.222C1075.58 468.358 1076.63 467.206 1077.38 465.766C1078.14 464.29 1078.5 462.634 1078.46 460.798C1078.5 458.926 1078.14 457.27 1077.38 455.83C1076.63 454.354 1075.58 453.202 1074.25 452.374C1072.92 451.546 1071.41 451.132 1069.72 451.132C1068.02 451.132 1066.49 451.564 1065.13 452.428C1063.79 453.256 1062.75 454.408 1061.99 455.884C1061.24 457.324 1060.88 458.962 1060.91 460.798C1060.88 462.634 1061.24 464.29 1061.99 465.766C1062.75 467.206 1063.79 468.358 1065.13 469.222C1066.49 470.05 1068.02 470.464 1069.72 470.464ZM1102.07 475V446.65H1107.69V455.56L1107.15 453.4C1107.55 452.032 1108.21 450.79 1109.15 449.674C1110.12 448.558 1111.22 447.676 1112.44 447.028C1113.7 446.38 1115 446.056 1116.33 446.056C1116.94 446.056 1117.52 446.11 1118.06 446.218C1118.63 446.326 1119.08 446.452 1119.41 446.596L1117.95 452.644C1117.52 452.464 1117.03 452.32 1116.49 452.212C1115.99 452.068 1115.48 451.996 1114.98 451.996C1114.01 451.996 1113.07 452.194 1112.17 452.59C1111.31 452.95 1110.53 453.472 1109.85 454.156C1109.2 454.804 1108.68 455.578 1108.28 456.478C1107.89 457.342 1107.69 458.296 1107.69 459.34V475H1102.07ZM1147.75 475.54C1144.83 475.54 1142.24 474.928 1139.97 473.704C1137.74 472.444 1135.98 470.734 1134.68 468.574C1133.42 466.414 1132.79 463.93 1132.79 461.122C1132.79 458.89 1133.15 456.856 1133.87 455.02C1134.59 453.184 1135.58 451.6 1136.84 450.268C1138.14 448.9 1139.67 447.856 1141.43 447.136C1143.23 446.38 1145.18 446.002 1147.26 446.002C1149.1 446.002 1150.81 446.362 1152.39 447.082C1153.98 447.766 1155.35 448.72 1156.5 449.944C1157.69 451.168 1158.59 452.626 1159.2 454.318C1159.85 455.974 1160.15 457.792 1160.12 459.772L1160.06 462.148H1136.9L1135.65 457.72H1155.26L1154.45 458.638V457.342C1154.34 456.154 1153.94 455.092 1153.26 454.156C1152.57 453.22 1151.71 452.482 1150.67 451.942C1149.62 451.402 1148.49 451.132 1147.26 451.132C1145.32 451.132 1143.68 451.51 1142.35 452.266C1141.02 452.986 1140.01 454.066 1139.33 455.506C1138.64 456.91 1138.3 458.656 1138.3 460.744C1138.3 462.724 1138.71 464.452 1139.54 465.928C1140.37 467.368 1141.54 468.484 1143.05 469.276C1144.56 470.068 1146.31 470.464 1148.29 470.464C1149.69 470.464 1150.99 470.23 1152.18 469.762C1153.4 469.294 1154.72 468.448 1156.12 467.224L1158.93 471.166C1158.06 472.03 1157 472.786 1155.74 473.434C1154.52 474.082 1153.2 474.604 1151.8 475C1150.43 475.36 1149.08 475.54 1147.75 475.54Z" fill="black"/>
<g clip-path="url(#clip0_0_1)">
<rect width="229" height="242" transform="translate(940 70)" fill="#CEE8FA"/>
<path d="M1142.28 291.017C1142.28 303.719 1131.99 314.017 1119.28 314.017H964.908C952.206 314.017 941.908 303.719 941.908 291.017V115.183C941.908 102.481 952.206 92.1833 964.908 92.1833H979.533C985.102 92.1833 989.617 87.6689 989.617 82.1V82.1C989.617 76.5311 994.131 72.0167 999.7 72.0167H1084.49C1090.06 72.0167 1094.57 76.5311 1094.57 82.1V82.1C1094.57 87.6689 1099.09 92.1833 1104.66 92.1833H1119.28C1131.99 92.1833 1142.28 102.481 1142.28 115.183V291.017ZM960.992 270.85C960.992 283.553 971.289 293.85 983.992 293.85H1100.2C1112.9 293.85 1123.2 283.553 1123.2 270.85V126.662C1123.2 118.758 1116.79 112.35 1108.89 112.35V112.35C1100.98 112.35 1094.57 118.758 1094.57 126.662V127.475C1094.57 135.828 1087.8 142.6 1079.45 142.6H1004.74C996.388 142.6 989.617 135.828 989.617 127.475V126.662C989.617 118.758 983.209 112.35 975.304 112.35V112.35C967.4 112.35 960.992 118.758 960.992 126.662V270.85ZM1008.7 107.308C1008.7 115.662 1015.47 122.433 1023.82 122.433H1060.37C1068.72 122.433 1075.49 115.662 1075.49 107.308V107.308C1075.49 98.955 1068.72 92.1833 1060.37 92.1833H1023.82C1015.47 92.1833 1008.7 98.955 1008.7 107.308V107.308ZM1094.57 243.975C1094.57 249.245 1090.3 253.517 1085.03 253.517V253.517C1079.76 253.517 1075.49 249.245 1075.49 243.975V182.392C1075.49 177.122 1079.76 172.85 1085.03 172.85V172.85C1090.3 172.85 1094.57 177.122 1094.57 182.392V243.975ZM1065.95 243.975C1065.95 249.245 1061.68 253.517 1056.41 253.517V253.517C1051.14 253.517 1046.87 249.245 1046.87 243.975V212.642C1046.87 207.372 1051.14 203.1 1056.41 203.1V203.1C1061.68 203.1 1065.95 207.372 1065.95 212.642V243.975ZM1037.32 243.975C1037.32 249.245 1033.05 253.517 1027.78 253.517V253.517C1022.51 253.517 1018.24 249.245 1018.24 243.975V202.558C1018.24 197.289 1022.51 193.017 1027.78 193.017V193.017C1033.05 193.017 1037.32 197.289 1037.32 202.558V243.975ZM1008.7 243.975C1008.7 249.245 1004.43 253.517 999.158 253.517V253.517C993.889 253.517 989.617 249.245 989.617 243.975V222.725C989.617 217.455 993.889 213.183 999.158 213.183V213.183C1004.43 213.183 1008.7 217.455 1008.7 222.725V243.975Z" fill="#2D527C"/>
</g>
<path d="M369 270H461M461 270L422.667 228M461 270L422.667 312" stroke="#2D527C" stroke-width="14" stroke-linecap="round" stroke-linejoin="round"/>
<path d="M788 270H880M880 270L841.667 228M880 270L841.667 312" stroke="#2D527C" stroke-width="16" stroke-linecap="round" stroke-linejoin="round"/>
<path d="M279.969 309H101.03C90.4946 309 81.9228 301.57 81.9228 292.436V111.393C81.9228 102.141 90.4492 94.6136 100.93 94.6136H279.97C290.507 94.6136 299.078 102.044 299.078 111.177V200.634C299.078 204.375 295.641 207.409 291.403 207.409C287.165 207.409 283.729 204.375 283.729 200.634V111.177C283.729 109.515 282.043 108.164 279.971 108.164H100.929C98.9122 108.164 97.2716 109.612 97.2716 111.393V292.436C97.2716 294.098 98.9576 295.45 101.03 295.45H279.97C282.042 295.45 283.728 294.098 283.728 292.436V243.182C283.728 239.44 287.164 236.407 291.402 236.407C295.64 236.407 299.077 239.44 299.077 243.182V292.436C299.078 301.569 290.506 309 279.969 309Z" fill="#2D527C"/>
<path d="M220.007 101.875C220.033 101.427 220.047 100.975 220.047 100.52C220.047 86.3014 206.991 74.7748 190.884 74.7748C174.777 74.7748 161.72 86.3009 161.72 100.52C161.72 100.975 161.735 101.427 161.761 101.875H126.8V126.941H254.199V101.875H220.007Z" fill="#CEE8FA"/>
<path d="M254.199 133.716H126.8C122.562 133.716 119.126 130.683 119.126 126.941V101.875C119.126 98.1335 122.562 95.1003 126.8 95.1003H154.557C157.489 79.7389 172.662 68 190.883 68C209.105 68 224.278 79.7389 227.209 95.1003H254.199C258.436 95.1003 261.873 98.1335 261.873 101.875V126.941C261.874 130.683 258.438 133.716 254.199 133.716ZM134.475 120.166H246.524V108.65H220.006C217.903 108.65 215.891 107.888 214.441 106.541C212.993 105.194 212.233 103.381 212.342 101.526C212.361 101.193 212.372 100.857 212.372 100.52C212.372 90.06 202.732 81.5501 190.883 81.5501C179.035 81.5501 169.395 90.0604 169.395 100.52C169.395 100.857 169.405 101.193 169.426 101.526C169.534 103.381 168.775 105.194 167.326 106.541C165.877 107.887 163.865 108.65 161.761 108.65H134.475V120.166Z" fill="#2D527C"/>
<path d="M192.034 153.609H126.801V175.967H192.034V153.609Z" fill="#CEE8FA"/>
<path d="M192.033 182.739H126.8C122.562 182.739 119.126 179.706 119.126 175.964V153.607C119.126 149.865 122.562 146.832 126.8 146.832H192.034C196.271 146.832 199.708 149.865 199.708 153.607V175.964C199.707 179.706 196.272 182.739 192.033 182.739ZM134.475 169.189H184.36V160.382H134.475V169.189Z" fill="#2D527C"/>
<path d="M254.199 182.739H223.499C219.262 182.739 215.825 179.706 215.825 175.964V153.607C215.825 149.865 219.262 146.832 223.499 146.832H254.199C258.436 146.832 261.873 149.865 261.873 153.607C261.873 157.348 258.436 160.382 254.199 160.382H231.174V169.189H254.199C258.436 169.189 261.873 172.222 261.873 175.964C261.873 179.705 258.438 182.739 254.199 182.739Z" fill="#2D527C"/>
<path d="M192.034 250.492H126.801V272.849H192.034V250.492Z" fill="#CEE8FA"/>
<path d="M192.033 279.622H126.8C122.562 279.622 119.126 276.588 119.126 272.847V250.489C119.126 246.748 122.562 243.714 126.8 243.714H192.034C196.271 243.714 199.708 246.748 199.708 250.489V272.847C199.707 276.588 196.272 279.622 192.033 279.622ZM134.475 266.071H184.36V257.264H134.475V266.071Z" fill="#2D527C"/>
<path d="M254.199 279.622H223.499C219.262 279.622 215.825 276.588 215.825 272.847V250.489C215.825 246.748 219.262 243.714 223.499 243.714H254.199C258.436 243.714 261.873 246.748 261.873 250.489C261.873 254.231 258.436 257.264 254.199 257.264H231.174V266.071H254.199C258.436 266.071 261.873 269.105 261.873 272.846C261.874 276.588 258.438 279.622 254.199 279.622Z" fill="#2D527C"/>
<path d="M254.198 202.05H188.965V224.408H254.198V202.05Z" fill="#CEE8FA"/>
<path d="M254.199 231.18H188.966C184.728 231.18 181.292 228.147 181.292 224.405V202.048C181.292 198.306 184.728 195.273 188.966 195.273H254.199C258.436 195.273 261.873 198.306 261.873 202.048V224.405C261.874 228.147 258.438 231.18 254.199 231.18ZM196.641 217.63H246.524V208.823H196.641V217.63Z" fill="#2D527C"/>
<path d="M157.5 231.18H126.8C122.562 231.18 119.126 228.147 119.126 224.405V202.048C119.126 198.306 122.562 195.273 126.8 195.273H157.5C161.738 195.273 165.174 198.306 165.174 202.048C165.174 205.789 161.738 208.823 157.5 208.823H134.475V217.63H157.5C161.738 217.63 165.174 220.663 165.174 224.405C165.174 228.147 161.739 231.18 157.5 231.18Z" fill="#2D527C"/>
<path d="M643.312 84.625H624.5H561.792C547.939 84.625 536.708 94.9598 536.708 107.708V269.292C536.708 282.041 547.939 292.375 561.792 292.375H568.062M643.312 84.625L712.292 149.547M643.312 84.625V138.005C643.312 144.379 648.927 149.547 655.854 149.547H712.292M712.292 149.547V162.531V188.5V269.292C712.292 282.041 701.062 292.375 687.208 292.375H680.937" stroke="#2D527C" stroke-width="15" stroke-linecap="round" stroke-linejoin="round"/>
<path d="M624.5 292.375V200.042M624.5 200.042L655.854 228.896M624.5 200.042L593.146 228.896" stroke="#2D527C" stroke-width="15" stroke-linecap="round" stroke-linejoin="round"/>
<defs>
<clipPath id="clip0_0_1">
<rect width="229" height="242" fill="white" transform="translate(940 70)"/>
</clipPath>
</defs>
</svg>
